%TF.GenerationSoftware,KiCad,Pcbnew,8.0.5*%
%TF.CreationDate,2025-01-05T17:00:35+01:00*%
%TF.ProjectId,race-timer_feather,72616365-2d74-4696-9d65-725f66656174,rev?*%
%TF.SameCoordinates,Original*%
%TF.FileFunction,Legend,Top*%
%TF.FilePolarity,Positive*%
%FSLAX46Y46*%
G04 Gerber Fmt 4.6, Leading zero omitted, Abs format (unit mm)*
G04 Created by KiCad (PCBNEW 8.0.5) date 2025-01-05 17:00:35*
%MOMM*%
%LPD*%
G01*
G04 APERTURE LIST*
G04 Aperture macros list*
%AMRoundRect*
0 Rectangle with rounded corners*
0 $1 Rounding radius*
0 $2 $3 $4 $5 $6 $7 $8 $9 X,Y pos of 4 corners*
0 Add a 4 corners polygon primitive as box body*
4,1,4,$2,$3,$4,$5,$6,$7,$8,$9,$2,$3,0*
0 Add four circle primitives for the rounded corners*
1,1,$1+$1,$2,$3*
1,1,$1+$1,$4,$5*
1,1,$1+$1,$6,$7*
1,1,$1+$1,$8,$9*
0 Add four rect primitives between the rounded corners*
20,1,$1+$1,$2,$3,$4,$5,0*
20,1,$1+$1,$4,$5,$6,$7,0*
20,1,$1+$1,$6,$7,$8,$9,0*
20,1,$1+$1,$8,$9,$2,$3,0*%
G04 Aperture macros list end*
%ADD10C,0.150000*%
%ADD11C,0.120000*%
%ADD12RoundRect,0.250000X-0.600000X-0.750000X0.600000X-0.750000X0.600000X0.750000X-0.600000X0.750000X0*%
%ADD13O,1.700000X2.000000*%
%ADD14R,1.700000X1.700000*%
%ADD15O,1.700000X1.700000*%
%ADD16RoundRect,0.250000X-0.600000X-0.725000X0.600000X-0.725000X0.600000X0.725000X-0.600000X0.725000X0*%
%ADD17O,1.700000X1.950000*%
%ADD18R,1.850000X1.850000*%
%ADD19C,1.850000*%
%ADD20C,1.600000*%
%ADD21O,1.600000X1.600000*%
%ADD22RoundRect,0.250000X-0.725000X0.600000X-0.725000X-0.600000X0.725000X-0.600000X0.725000X0.600000X0*%
%ADD23O,1.950000X1.700000*%
G04 APERTURE END LIST*
D10*
X133722744Y-96431009D02*
X133865601Y-96478628D01*
X133865601Y-96478628D02*
X133913220Y-96526247D01*
X133913220Y-96526247D02*
X133960839Y-96621485D01*
X133960839Y-96621485D02*
X133960839Y-96764342D01*
X133960839Y-96764342D02*
X133913220Y-96859580D01*
X133913220Y-96859580D02*
X133865601Y-96907200D01*
X133865601Y-96907200D02*
X133770363Y-96954819D01*
X133770363Y-96954819D02*
X133389411Y-96954819D01*
X133389411Y-96954819D02*
X133389411Y-95954819D01*
X133389411Y-95954819D02*
X133722744Y-95954819D01*
X133722744Y-95954819D02*
X133817982Y-96002438D01*
X133817982Y-96002438D02*
X133865601Y-96050057D01*
X133865601Y-96050057D02*
X133913220Y-96145295D01*
X133913220Y-96145295D02*
X133913220Y-96240533D01*
X133913220Y-96240533D02*
X133865601Y-96335771D01*
X133865601Y-96335771D02*
X133817982Y-96383390D01*
X133817982Y-96383390D02*
X133722744Y-96431009D01*
X133722744Y-96431009D02*
X133389411Y-96431009D01*
X133734649Y-112669104D02*
X134210839Y-112669104D01*
X133639411Y-112954819D02*
X133972744Y-111954819D01*
X133972744Y-111954819D02*
X134306077Y-112954819D01*
X165454819Y-101110588D02*
X164454819Y-101110588D01*
X164454819Y-101110588D02*
X164454819Y-100872493D01*
X164454819Y-100872493D02*
X164502438Y-100729636D01*
X164502438Y-100729636D02*
X164597676Y-100634398D01*
X164597676Y-100634398D02*
X164692914Y-100586779D01*
X164692914Y-100586779D02*
X164883390Y-100539160D01*
X164883390Y-100539160D02*
X165026247Y-100539160D01*
X165026247Y-100539160D02*
X165216723Y-100586779D01*
X165216723Y-100586779D02*
X165311961Y-100634398D01*
X165311961Y-100634398D02*
X165407200Y-100729636D01*
X165407200Y-100729636D02*
X165454819Y-100872493D01*
X165454819Y-100872493D02*
X165454819Y-101110588D01*
X156954819Y-102015350D02*
X156954819Y-101396303D01*
X156954819Y-101396303D02*
X157335771Y-101729636D01*
X157335771Y-101729636D02*
X157335771Y-101586779D01*
X157335771Y-101586779D02*
X157383390Y-101491541D01*
X157383390Y-101491541D02*
X157431009Y-101443922D01*
X157431009Y-101443922D02*
X157526247Y-101396303D01*
X157526247Y-101396303D02*
X157764342Y-101396303D01*
X157764342Y-101396303D02*
X157859580Y-101443922D01*
X157859580Y-101443922D02*
X157907200Y-101491541D01*
X157907200Y-101491541D02*
X157954819Y-101586779D01*
X157954819Y-101586779D02*
X157954819Y-101872493D01*
X157954819Y-101872493D02*
X157907200Y-101967731D01*
X157907200Y-101967731D02*
X157859580Y-102015350D01*
X156954819Y-101110588D02*
X157954819Y-100777255D01*
X157954819Y-100777255D02*
X156954819Y-100443922D01*
X162002438Y-100586779D02*
X161954819Y-100682017D01*
X161954819Y-100682017D02*
X161954819Y-100824874D01*
X161954819Y-100824874D02*
X162002438Y-100967731D01*
X162002438Y-100967731D02*
X162097676Y-101062969D01*
X162097676Y-101062969D02*
X162192914Y-101110588D01*
X162192914Y-101110588D02*
X162383390Y-101158207D01*
X162383390Y-101158207D02*
X162526247Y-101158207D01*
X162526247Y-101158207D02*
X162716723Y-101110588D01*
X162716723Y-101110588D02*
X162811961Y-101062969D01*
X162811961Y-101062969D02*
X162907200Y-100967731D01*
X162907200Y-100967731D02*
X162954819Y-100824874D01*
X162954819Y-100824874D02*
X162954819Y-100729636D01*
X162954819Y-100729636D02*
X162907200Y-100586779D01*
X162907200Y-100586779D02*
X162859580Y-100539160D01*
X162859580Y-100539160D02*
X162526247Y-100539160D01*
X162526247Y-100539160D02*
X162526247Y-100729636D01*
X167859580Y-100539160D02*
X167907200Y-100586779D01*
X167907200Y-100586779D02*
X167954819Y-100729636D01*
X167954819Y-100729636D02*
X167954819Y-100824874D01*
X167954819Y-100824874D02*
X167907200Y-100967731D01*
X167907200Y-100967731D02*
X167811961Y-101062969D01*
X167811961Y-101062969D02*
X167716723Y-101110588D01*
X167716723Y-101110588D02*
X167526247Y-101158207D01*
X167526247Y-101158207D02*
X167383390Y-101158207D01*
X167383390Y-101158207D02*
X167192914Y-101110588D01*
X167192914Y-101110588D02*
X167097676Y-101062969D01*
X167097676Y-101062969D02*
X167002438Y-100967731D01*
X167002438Y-100967731D02*
X166954819Y-100824874D01*
X166954819Y-100824874D02*
X166954819Y-100729636D01*
X166954819Y-100729636D02*
X167002438Y-100586779D01*
X167002438Y-100586779D02*
X167050057Y-100539160D01*
X159454819Y-101443922D02*
X159454819Y-101920112D01*
X159454819Y-101920112D02*
X159931009Y-101967731D01*
X159931009Y-101967731D02*
X159883390Y-101920112D01*
X159883390Y-101920112D02*
X159835771Y-101824874D01*
X159835771Y-101824874D02*
X159835771Y-101586779D01*
X159835771Y-101586779D02*
X159883390Y-101491541D01*
X159883390Y-101491541D02*
X159931009Y-101443922D01*
X159931009Y-101443922D02*
X160026247Y-101396303D01*
X160026247Y-101396303D02*
X160264342Y-101396303D01*
X160264342Y-101396303D02*
X160359580Y-101443922D01*
X160359580Y-101443922D02*
X160407200Y-101491541D01*
X160407200Y-101491541D02*
X160454819Y-101586779D01*
X160454819Y-101586779D02*
X160454819Y-101824874D01*
X160454819Y-101824874D02*
X160407200Y-101920112D01*
X160407200Y-101920112D02*
X160359580Y-101967731D01*
X159454819Y-101110588D02*
X160454819Y-100777255D01*
X160454819Y-100777255D02*
X159454819Y-100443922D01*
X3910714Y220180D02*
X3910714Y1220180D01*
X3910714Y1220180D02*
X4291666Y1220180D01*
X4291666Y1220180D02*
X4386904Y1172561D01*
X4386904Y1172561D02*
X4434523Y1124942D01*
X4434523Y1124942D02*
X4482142Y1029704D01*
X4482142Y1029704D02*
X4482142Y886847D01*
X4482142Y886847D02*
X4434523Y791609D01*
X4434523Y791609D02*
X4386904Y743990D01*
X4386904Y743990D02*
X4291666Y696371D01*
X4291666Y696371D02*
X3910714Y696371D01*
X4863095Y267800D02*
X5005952Y220180D01*
X5005952Y220180D02*
X5244047Y220180D01*
X5244047Y220180D02*
X5339285Y267800D01*
X5339285Y267800D02*
X5386904Y315419D01*
X5386904Y315419D02*
X5434523Y410657D01*
X5434523Y410657D02*
X5434523Y505895D01*
X5434523Y505895D02*
X5386904Y601133D01*
X5386904Y601133D02*
X5339285Y648752D01*
X5339285Y648752D02*
X5244047Y696371D01*
X5244047Y696371D02*
X5053571Y743990D01*
X5053571Y743990D02*
X4958333Y791609D01*
X4958333Y791609D02*
X4910714Y839228D01*
X4910714Y839228D02*
X4863095Y934466D01*
X4863095Y934466D02*
X4863095Y1029704D01*
X4863095Y1029704D02*
X4910714Y1124942D01*
X4910714Y1124942D02*
X4958333Y1172561D01*
X4958333Y1172561D02*
X5053571Y1220180D01*
X5053571Y1220180D02*
X5291666Y1220180D01*
X5291666Y1220180D02*
X5434523Y1172561D01*
X6386904Y220180D02*
X5815476Y220180D01*
X6101190Y220180D02*
X6101190Y1220180D01*
X6101190Y1220180D02*
X6005952Y1077323D01*
X6005952Y1077323D02*
X5910714Y982085D01*
X5910714Y982085D02*
X5815476Y934466D01*
D11*
%TO.C,J6*%
X144900000Y-97500000D02*
X144900000Y-98750000D01*
X145190000Y-97790000D02*
X145190000Y-103760000D01*
X145190000Y-103760000D02*
X152810000Y-103760000D01*
X145200000Y-97800000D02*
X145200000Y-98550000D01*
X145200000Y-98550000D02*
X147000000Y-98550000D01*
X145200000Y-100050000D02*
X145950000Y-100050000D01*
X145950000Y-100050000D02*
X145950000Y-103000000D01*
X145950000Y-103000000D02*
X149000000Y-103000000D01*
X146150000Y-97500000D02*
X144900000Y-97500000D01*
X147000000Y-97800000D02*
X145200000Y-97800000D01*
X147000000Y-98550000D02*
X147000000Y-97800000D01*
X148500000Y-97800000D02*
X148500000Y-98550000D01*
X148500000Y-98550000D02*
X149500000Y-98550000D01*
X149500000Y-97800000D02*
X148500000Y-97800000D01*
X149500000Y-98550000D02*
X149500000Y-97800000D01*
X151000000Y-97800000D02*
X151000000Y-98550000D01*
X151000000Y-98550000D02*
X152800000Y-98550000D01*
X152050000Y-100050000D02*
X152050000Y-103000000D01*
X152050000Y-103000000D02*
X149000000Y-103000000D01*
X152800000Y-97800000D02*
X151000000Y-97800000D01*
X152800000Y-98550000D02*
X152800000Y-97800000D01*
X152800000Y-100050000D02*
X152050000Y-100050000D01*
X152810000Y-97790000D02*
X145190000Y-97790000D01*
X152810000Y-103760000D02*
X152810000Y-97790000D01*
%TO.C,J2*%
X138281100Y-93513600D02*
X139611100Y-93513600D01*
X138281100Y-94843600D02*
X138281100Y-93513600D01*
X140881100Y-93513600D02*
X168881100Y-93513600D01*
X140881100Y-96173600D02*
X140881100Y-93513600D01*
X140881100Y-96173600D02*
X168881100Y-96173600D01*
X168881100Y-96173600D02*
X168881100Y-93513600D01*
%TO.C,J3*%
X133150000Y-105000000D02*
X133150000Y-106250000D01*
X133440000Y-105290000D02*
X133440000Y-111260000D01*
X133440000Y-111260000D02*
X143560000Y-111260000D01*
X133450000Y-105300000D02*
X133450000Y-106050000D01*
X133450000Y-106050000D02*
X135250000Y-106050000D01*
X133450000Y-107550000D02*
X134200000Y-107550000D01*
X134200000Y-107550000D02*
X134200000Y-110500000D01*
X134200000Y-110500000D02*
X138500000Y-110500000D01*
X134400000Y-105000000D02*
X133150000Y-105000000D01*
X135250000Y-105300000D02*
X133450000Y-105300000D01*
X135250000Y-106050000D02*
X135250000Y-105300000D01*
X136750000Y-105300000D02*
X136750000Y-106050000D01*
X136750000Y-106050000D02*
X140250000Y-106050000D01*
X140250000Y-105300000D02*
X136750000Y-105300000D01*
X140250000Y-106050000D02*
X140250000Y-105300000D01*
X141750000Y-105300000D02*
X141750000Y-106050000D01*
X141750000Y-106050000D02*
X143550000Y-106050000D01*
X142800000Y-107550000D02*
X142800000Y-110500000D01*
X142800000Y-110500000D02*
X138500000Y-110500000D01*
X143550000Y-105300000D02*
X141750000Y-105300000D01*
X143550000Y-106050000D02*
X143550000Y-105300000D01*
X143550000Y-107550000D02*
X142800000Y-107550000D01*
X143560000Y-105290000D02*
X133440000Y-105290000D01*
X143560000Y-111260000D02*
X143560000Y-105290000D01*
%TO.C,J8*%
X156085000Y-97420000D02*
X156085000Y-100080000D01*
X166305000Y-97420000D02*
X156085000Y-97420000D01*
X166305000Y-97420000D02*
X166305000Y-100080000D01*
X166305000Y-100080000D02*
X156085000Y-100080000D01*
X167575000Y-97420000D02*
X168905000Y-97420000D01*
X168905000Y-97420000D02*
X168905000Y-98750000D01*
%TO.C,PS1*%
X115000Y-120000D02*
X115000Y-1370000D01*
X415000Y-420000D02*
X415000Y-22490000D01*
X415000Y-22490000D02*
X9835000Y-22490000D01*
X1365000Y-120000D02*
X115000Y-120000D01*
X9835000Y-420000D02*
X415000Y-420000D01*
X9835000Y-22490000D02*
X9835000Y-420000D01*
%TO.C,J5*%
X144900000Y-105000000D02*
X144900000Y-106250000D01*
X145190000Y-105290000D02*
X145190000Y-111260000D01*
X145190000Y-111260000D02*
X152810000Y-111260000D01*
X145200000Y-105300000D02*
X145200000Y-106050000D01*
X145200000Y-106050000D02*
X147000000Y-106050000D01*
X145200000Y-107550000D02*
X145950000Y-107550000D01*
X145950000Y-107550000D02*
X145950000Y-110500000D01*
X145950000Y-110500000D02*
X149000000Y-110500000D01*
X146150000Y-105000000D02*
X144900000Y-105000000D01*
X147000000Y-105300000D02*
X145200000Y-105300000D01*
X147000000Y-106050000D02*
X147000000Y-105300000D01*
X148500000Y-105300000D02*
X148500000Y-106050000D01*
X148500000Y-106050000D02*
X149500000Y-106050000D01*
X149500000Y-105300000D02*
X148500000Y-105300000D01*
X149500000Y-106050000D02*
X149500000Y-105300000D01*
X151000000Y-105300000D02*
X151000000Y-106050000D01*
X151000000Y-106050000D02*
X152800000Y-106050000D01*
X152050000Y-107550000D02*
X152050000Y-110500000D01*
X152050000Y-110500000D02*
X149000000Y-110500000D01*
X152800000Y-105300000D02*
X151000000Y-105300000D01*
X152800000Y-106050000D02*
X152800000Y-105300000D01*
X152800000Y-107550000D02*
X152050000Y-107550000D01*
X152810000Y-105290000D02*
X145190000Y-105290000D01*
X152810000Y-111260000D02*
X152810000Y-105290000D01*
%TO.C,R1*%
X156710000Y-110000000D02*
X157480000Y-110000000D01*
X157480000Y-108630000D02*
X157480000Y-111370000D01*
X157480000Y-111370000D02*
X164020000Y-111370000D01*
X164020000Y-108630000D02*
X157480000Y-108630000D01*
X164020000Y-111370000D02*
X164020000Y-108630000D01*
X164790000Y-110000000D02*
X164020000Y-110000000D01*
%TO.C,J4*%
X133150000Y-97500000D02*
X133150000Y-98750000D01*
X133440000Y-97790000D02*
X133440000Y-103760000D01*
X133440000Y-103760000D02*
X143560000Y-103760000D01*
X133450000Y-97800000D02*
X133450000Y-98550000D01*
X133450000Y-98550000D02*
X135250000Y-98550000D01*
X133450000Y-100050000D02*
X134200000Y-100050000D01*
X134200000Y-100050000D02*
X134200000Y-103000000D01*
X134200000Y-103000000D02*
X138500000Y-103000000D01*
X134400000Y-97500000D02*
X133150000Y-97500000D01*
X135250000Y-97800000D02*
X133450000Y-97800000D01*
X135250000Y-98550000D02*
X135250000Y-97800000D01*
X136750000Y-97800000D02*
X136750000Y-98550000D01*
X136750000Y-98550000D02*
X140250000Y-98550000D01*
X140250000Y-97800000D02*
X136750000Y-97800000D01*
X140250000Y-98550000D02*
X140250000Y-97800000D01*
X141750000Y-97800000D02*
X141750000Y-98550000D01*
X141750000Y-98550000D02*
X143550000Y-98550000D01*
X142800000Y-100050000D02*
X142800000Y-103000000D01*
X142800000Y-103000000D02*
X138500000Y-103000000D01*
X143550000Y-97800000D02*
X141750000Y-97800000D01*
X143550000Y-98550000D02*
X143550000Y-97800000D01*
X143550000Y-100050000D02*
X142800000Y-100050000D01*
X143560000Y-97790000D02*
X133440000Y-97790000D01*
X143560000Y-103760000D02*
X143560000Y-97790000D01*
%TO.C,J7*%
X125240000Y-98690000D02*
X125240000Y-111310000D01*
X125240000Y-111310000D02*
X131210000Y-111310000D01*
X126000000Y-99450000D02*
X126000000Y-105000000D01*
X126000000Y-110550000D02*
X126000000Y-105000000D01*
X128950000Y-98700000D02*
X128950000Y-99450000D01*
X128950000Y-99450000D02*
X126000000Y-99450000D01*
X128950000Y-110550000D02*
X126000000Y-110550000D01*
X128950000Y-111300000D02*
X128950000Y-110550000D01*
X130450000Y-98700000D02*
X130450000Y-100500000D01*
X130450000Y-100500000D02*
X131200000Y-100500000D01*
X130450000Y-102000000D02*
X130450000Y-108000000D01*
X130450000Y-108000000D02*
X131200000Y-108000000D01*
X130450000Y-109500000D02*
X130450000Y-111300000D01*
X130450000Y-111300000D02*
X131200000Y-111300000D01*
X131200000Y-98700000D02*
X130450000Y-98700000D01*
X131200000Y-100500000D02*
X131200000Y-98700000D01*
X131200000Y-102000000D02*
X130450000Y-102000000D01*
X131200000Y-108000000D02*
X131200000Y-102000000D01*
X131200000Y-109500000D02*
X130450000Y-109500000D01*
X131200000Y-111300000D02*
X131200000Y-109500000D01*
X131210000Y-98690000D02*
X125240000Y-98690000D01*
X131210000Y-111310000D02*
X131210000Y-98690000D01*
X131500000Y-98400000D02*
X130250000Y-98400000D01*
X131500000Y-99650000D02*
X131500000Y-98400000D01*
%TO.C,J1*%
X128121100Y-113833600D02*
X129451100Y-113833600D01*
X128121100Y-115163600D02*
X128121100Y-113833600D01*
X130721100Y-113833600D02*
X168881100Y-113833600D01*
X130721100Y-116493600D02*
X130721100Y-113833600D01*
X130721100Y-116493600D02*
X168881100Y-116493600D01*
X168881100Y-116493600D02*
X168881100Y-113833600D01*
%TO.C,R2*%
X156710000Y-106000000D02*
X157480000Y-106000000D01*
X157480000Y-104630000D02*
X157480000Y-107370000D01*
X157480000Y-107370000D02*
X164020000Y-107370000D01*
X164020000Y-104630000D02*
X157480000Y-104630000D01*
X164020000Y-107370000D02*
X164020000Y-104630000D01*
X164790000Y-106000000D02*
X164020000Y-106000000D01*
%TD*%
%LPC*%
D12*
%TO.C,J6*%
X147750000Y-100250000D03*
D13*
X150250000Y-100250000D03*
%TD*%
D14*
%TO.C,J2*%
X139611100Y-94843600D03*
D15*
X142151100Y-94843600D03*
X144691100Y-94843600D03*
X147231100Y-94843600D03*
X149771100Y-94843600D03*
X152311100Y-94843600D03*
X154851100Y-94843600D03*
X157391100Y-94843600D03*
X159931100Y-94843600D03*
X162471100Y-94843600D03*
X165011100Y-94843600D03*
X167551100Y-94843600D03*
%TD*%
D16*
%TO.C,J3*%
X136000000Y-107750000D03*
D17*
X138500000Y-107750000D03*
X141000000Y-107750000D03*
%TD*%
D14*
%TO.C,J8*%
X167575000Y-98750000D03*
D15*
X165035000Y-98750000D03*
X162495000Y-98750000D03*
X159955000Y-98750000D03*
X157415000Y-98750000D03*
%TD*%
D18*
%TO.C,PS1*%
X6525000Y-2565000D03*
D19*
X6525000Y-5105000D03*
X6525000Y-15265000D03*
X6525000Y-17805000D03*
X6525000Y-20345000D03*
%TD*%
D12*
%TO.C,J5*%
X147750000Y-107750000D03*
D13*
X150250000Y-107750000D03*
%TD*%
D20*
%TO.C,R1*%
X155670000Y-110000000D03*
D21*
X165830000Y-110000000D03*
%TD*%
D16*
%TO.C,J4*%
X136000000Y-100250000D03*
D17*
X138500000Y-100250000D03*
X141000000Y-100250000D03*
%TD*%
D22*
%TO.C,J7*%
X128750000Y-101250000D03*
D23*
X128750000Y-103750000D03*
X128750000Y-106250000D03*
X128750000Y-108750000D03*
%TD*%
D14*
%TO.C,J1*%
X129451100Y-115163600D03*
D15*
X131991100Y-115163600D03*
X134531100Y-115163600D03*
X137071100Y-115163600D03*
X139611100Y-115163600D03*
X142151100Y-115163600D03*
X144691100Y-115163600D03*
X147231100Y-115163600D03*
X149771100Y-115163600D03*
X152311100Y-115163600D03*
X154851100Y-115163600D03*
X157391100Y-115163600D03*
X159931100Y-115163600D03*
X162471100Y-115163600D03*
X165011100Y-115163600D03*
X167551100Y-115163600D03*
%TD*%
D20*
%TO.C,R2*%
X155670000Y-106000000D03*
D21*
X165830000Y-106000000D03*
%TD*%
%LPD*%
M02*
