%TF.GenerationSoftware,KiCad,Pcbnew,8.0.5*%
%TF.CreationDate,2025-01-05T17:00:35+01:00*%
%TF.ProjectId,race-timer_feather,72616365-2d74-4696-9d65-725f66656174,rev?*%
%TF.SameCoordinates,Original*%
%TF.FileFunction,Soldermask,Bot*%
%TF.FilePolarity,Negative*%
%FSLAX46Y46*%
G04 Gerber Fmt 4.6, Leading zero omitted, Abs format (unit mm)*
G04 Created by KiCad (PCBNEW 8.0.5) date 2025-01-05 17:00:35*
%MOMM*%
%LPD*%
G01*
G04 APERTURE LIST*
G04 Aperture macros list*
%AMRoundRect*
0 Rectangle with rounded corners*
0 $1 Rounding radius*
0 $2 $3 $4 $5 $6 $7 $8 $9 X,Y pos of 4 corners*
0 Add a 4 corners polygon primitive as box body*
4,1,4,$2,$3,$4,$5,$6,$7,$8,$9,$2,$3,0*
0 Add four circle primitives for the rounded corners*
1,1,$1+$1,$2,$3*
1,1,$1+$1,$4,$5*
1,1,$1+$1,$6,$7*
1,1,$1+$1,$8,$9*
0 Add four rect primitives between the rounded corners*
20,1,$1+$1,$2,$3,$4,$5,0*
20,1,$1+$1,$4,$5,$6,$7,0*
20,1,$1+$1,$6,$7,$8,$9,0*
20,1,$1+$1,$8,$9,$2,$3,0*%
G04 Aperture macros list end*
%ADD10RoundRect,0.250000X-0.600000X-0.750000X0.600000X-0.750000X0.600000X0.750000X-0.600000X0.750000X0*%
%ADD11O,1.700000X2.000000*%
%ADD12R,1.700000X1.700000*%
%ADD13O,1.700000X1.700000*%
%ADD14RoundRect,0.250000X-0.600000X-0.725000X0.600000X-0.725000X0.600000X0.725000X-0.600000X0.725000X0*%
%ADD15O,1.700000X1.950000*%
%ADD16R,1.850000X1.850000*%
%ADD17C,1.850000*%
%ADD18C,1.600000*%
%ADD19O,1.600000X1.600000*%
%ADD20RoundRect,0.250000X-0.725000X0.600000X-0.725000X-0.600000X0.725000X-0.600000X0.725000X0.600000X0*%
%ADD21O,1.950000X1.700000*%
G04 APERTURE END LIST*
D10*
%TO.C,J6*%
X147750000Y-100250000D03*
D11*
X150250000Y-100250000D03*
%TD*%
D12*
%TO.C,J2*%
X139611100Y-94843600D03*
D13*
X142151100Y-94843600D03*
X144691100Y-94843600D03*
X147231100Y-94843600D03*
X149771100Y-94843600D03*
X152311100Y-94843600D03*
X154851100Y-94843600D03*
X157391100Y-94843600D03*
X159931100Y-94843600D03*
X162471100Y-94843600D03*
X165011100Y-94843600D03*
X167551100Y-94843600D03*
%TD*%
D14*
%TO.C,J3*%
X136000000Y-107750000D03*
D15*
X138500000Y-107750000D03*
X141000000Y-107750000D03*
%TD*%
D12*
%TO.C,J8*%
X167575000Y-98750000D03*
D13*
X165035000Y-98750000D03*
X162495000Y-98750000D03*
X159955000Y-98750000D03*
X157415000Y-98750000D03*
%TD*%
D16*
%TO.C,PS1*%
X6525000Y-2565000D03*
D17*
X6525000Y-5105000D03*
X6525000Y-15265000D03*
X6525000Y-17805000D03*
X6525000Y-20345000D03*
%TD*%
D10*
%TO.C,J5*%
X147750000Y-107750000D03*
D11*
X150250000Y-107750000D03*
%TD*%
D18*
%TO.C,R1*%
X155670000Y-110000000D03*
D19*
X165830000Y-110000000D03*
%TD*%
D14*
%TO.C,J4*%
X136000000Y-100250000D03*
D15*
X138500000Y-100250000D03*
X141000000Y-100250000D03*
%TD*%
D20*
%TO.C,J7*%
X128750000Y-101250000D03*
D21*
X128750000Y-103750000D03*
X128750000Y-106250000D03*
X128750000Y-108750000D03*
%TD*%
D12*
%TO.C,J1*%
X129451100Y-115163600D03*
D13*
X131991100Y-115163600D03*
X134531100Y-115163600D03*
X137071100Y-115163600D03*
X139611100Y-115163600D03*
X142151100Y-115163600D03*
X144691100Y-115163600D03*
X147231100Y-115163600D03*
X149771100Y-115163600D03*
X152311100Y-115163600D03*
X154851100Y-115163600D03*
X157391100Y-115163600D03*
X159931100Y-115163600D03*
X162471100Y-115163600D03*
X165011100Y-115163600D03*
X167551100Y-115163600D03*
%TD*%
D18*
%TO.C,R2*%
X155670000Y-106000000D03*
D19*
X165830000Y-106000000D03*
%TD*%
M02*
