M48
; DRILL file {KiCad 8.0.5} date 2025-01-05T17:00:35+0100
; FORMAT={-:-/ absolute / inch / decimal}
; #@! TF.CreationDate,2025-01-05T17:00:35+01:00
; #@! TF.GenerationSoftware,Kicad,Pcbnew,8.0.5
; #@! TF.FileFunction,Plated,1,2,PTH
FMAT,2
INCH
; #@! TA.AperFunction,Plated,PTH,ComponentDrill
T1C0.0315
; #@! TA.AperFunction,Plated,PTH,ComponentDrill
T2C0.0335
; #@! TA.AperFunction,Plated,PTH,ComponentDrill
T3C0.0374
; #@! TA.AperFunction,Plated,PTH,ComponentDrill
T4C0.0394
; #@! TA.AperFunction,Plated,PTH,ViaDrill
T5C0.1000
%
G90
G05
T1
X6.1287Y-4.1732
X6.1287Y-4.3307
X6.5287Y-4.1732
X6.5287Y-4.3307
T2
X0.2569Y-0.101
X0.2569Y-0.201
X0.2569Y-0.601
X0.2569Y-0.701
X0.2569Y-0.801
T3
X5.0689Y-3.9862
X5.0689Y-4.0846
X5.0689Y-4.1831
X5.0689Y-4.2815
X5.3543Y-3.9469
X5.3543Y-4.2421
X5.4528Y-3.9469
X5.4528Y-4.2421
X5.5512Y-3.9469
X5.5512Y-4.2421
T4
X5.0965Y-4.534
X5.1965Y-4.534
X5.2965Y-4.534
X5.3965Y-4.534
X5.4965Y-3.734
X5.4965Y-4.534
X5.5965Y-3.734
X5.5965Y-4.534
X5.6965Y-3.734
X5.6965Y-4.534
X5.7965Y-3.734
X5.7965Y-4.534
X5.8169Y-3.9469
X5.8169Y-4.2421
X5.8965Y-3.734
X5.8965Y-4.534
X5.9154Y-3.9469
X5.9154Y-4.2421
X5.9965Y-3.734
X5.9965Y-4.534
X6.0965Y-3.734
X6.0965Y-4.534
X6.1965Y-3.734
X6.1965Y-4.534
X6.1974Y-3.8878
X6.2965Y-3.734
X6.2965Y-4.534
X6.2974Y-3.8878
X6.3965Y-3.734
X6.3965Y-4.534
X6.3974Y-3.8878
X6.4965Y-3.734
X6.4965Y-4.534
X6.4974Y-3.8878
X6.5965Y-3.734
X6.5965Y-4.534
X6.5974Y-3.8878
T5
X4.9465Y-3.784
X4.95Y-4.484
X6.7465Y-3.784
X6.7465Y-4.484
M30
